<svg xmlns="http://www.w3.org/2000/svg" width="63.999" height="64" viewBox="0 0 63.999 64">
  <g id="thumbs-up_1_" data-name="thumbs-up (1)" transform="translate(0)">
    <path id="Trazado_43" data-name="Trazado 43" d="M18.667,37.333H16a4,4,0,0,1-4-4V20a4,4,0,0,1,4-4h2.667a4,4,0,0,1,4,4V33.333A4,4,0,0,1,18.667,37.333ZM16,18.667A1.334,1.334,0,0,0,14.667,20V33.333A1.334,1.334,0,0,0,16,34.667h2.667A1.334,1.334,0,0,0,20,33.333V20a1.334,1.334,0,0,0-1.333-1.333Z" transform="translate(20 26.667)" fill="#0082e0"/>
    <path id="Trazado_44" data-name="Trazado 44" d="M31.05,43.3H29.023c-7.2,0-11.427-1.8-13.3-2.869a1.333,1.333,0,0,1,1.323-2.315c1.325.757,5.147,2.517,11.979,2.517H31.05a3.929,3.929,0,0,0,3.856-3.149c.008-.043.016-.083.027-.123.16-.779,1.416-8.253,1.451-8.992a3.759,3.759,0,0,0-3.76-3.736H25.29a1.334,1.334,0,0,1-1.107-2.077,8.464,8.464,0,0,0,1.027-4.243c0-2.661-1.069-3.627-1.787-3.627-.251.035-.533.413-.533,2.4,0,4.131-4.112,7.147-5.88,8.251A1.333,1.333,0,0,1,15.6,23.076c1.085-.677,4.627-3.115,4.627-5.989,0-1.645,0-5.067,3.2-5.067,2.144,0,4.453,1.968,4.453,6.293a12.09,12.09,0,0,1-.552,3.653h5.3a6.434,6.434,0,0,1,6.427,6.427c0,.085-.331,6.776-1.627,9.5l.117.019A6.568,6.568,0,0,1,31.05,43.3Z" transform="translate(24.95 20.033)" fill="#0082e0"/>
    <path id="Trazado_45" data-name="Trazado 45" d="M1.333,48a1.313,1.313,0,0,1-.659-.176,1.333,1.333,0,0,1-.5-1.819c5.5-9.643,8.064-18.88,8.064-29.072V9.573A9.584,9.584,0,0,1,17.813,0h8.24A9.557,9.557,0,0,1,33.73,3.835l1.227,1.627A6.9,6.9,0,0,0,40.48,8.237h2.053A5.474,5.474,0,0,1,48,13.7v1.573a5.484,5.484,0,0,1-3,4.872L34.17,25.563a2.772,2.772,0,0,0-1.333,3.5l2.717,6.552a1.333,1.333,0,0,1-2.464,1.019l-2.72-6.56a5.454,5.454,0,0,1,2.608-6.9L43.8,17.763a2.786,2.786,0,0,0,1.528-2.483V13.707a2.77,2.77,0,0,0-2.8-2.8H40.48a9.593,9.593,0,0,1-7.659-3.843L31.6,5.445a6.9,6.9,0,0,0-5.547-2.779h-8.24a6.915,6.915,0,0,0-6.907,6.907v7.36c0,10.675-2.675,20.333-8.416,30.392A1.326,1.326,0,0,1,1.333,48Z" transform="translate(0)" fill="#0082e0"/>
    <path id="Trazado_46" data-name="Trazado 46" d="M12.667,26.555A3.408,3.408,0,0,1,9.609,24.63L3.222,11.376a1.333,1.333,0,1,1,2.4-1.157l6.387,13.256c.205.424,1.317.461,1.379-.245L15.459,1.28A1.313,1.313,0,0,1,16.91.078a1.333,1.333,0,0,1,1.2,1.451L16.046,23.475a3.376,3.376,0,0,1-3.379,3.08Z" transform="translate(5.151 0.112)" fill="#0082e0"/>
  </g>
</svg>
