<svg id="Facebook" xmlns="http://www.w3.org/2000/svg" width="32.944" height="33" viewBox="0 0 32.944 33">
  <ellipse id="Elipse_7" data-name="Elipse 7" cx="16" cy="15.5" rx="16" ry="15.5" transform="translate(0.597 2)" fill="#fff"/>
  <path id="Facebook-2" data-name="Facebook" d="M-110.9-.5a16.528,16.528,0,0,0-16.472,16.583,16.539,16.539,0,0,0,13.9,16.362V21.421h-4.182V16.628h4.182V12.974c0-4.156,2.459-6.451,6.222-6.451a25.211,25.211,0,0,1,3.687.323v4.082h-2.077a2.388,2.388,0,0,0-2.684,2.589v3.111h4.568l-.731,4.793h-3.837V32.444a16.539,16.539,0,0,0,13.9-16.362A16.528,16.528,0,0,0-110.9-.5Z" transform="translate(127.374 0.5)" fill="#295aa3"/>
</svg>
