<svg id="Twitter" xmlns="http://www.w3.org/2000/svg" width="32.944" height="32.944" viewBox="0 0 32.944 32.944">
  <circle id="Elipse_9" data-name="Elipse 9" cx="15.5" cy="15.5" r="15.5" transform="translate(1.069 0.944)" fill="#fff"/>
  <g id="Twitter-2" data-name="Twitter">
    <path id="Twitter-3" data-name="Twitter" d="M-25.949,0h0A16.521,16.521,0,0,0-42.421,16.472h0A16.521,16.521,0,0,0-25.949,32.944h0A16.521,16.521,0,0,0-9.477,16.472,16.521,16.521,0,0,0-25.949,0Zm9.175,10.843a.448.448,0,0,1-.095.286,7.115,7.115,0,0,1-1.436,1.494c-.081.061-.219.125-.219.241a11.074,11.074,0,0,1-2.92,8.079A10.871,10.871,0,0,1-32,23.41a10.037,10.037,0,0,1-2.04-.817c-.216-.117-.427-.239-.635-.376-.053-.043-.092-.082-.047-.11s.079-.024.243,0a7.181,7.181,0,0,0,3.053-.391,4.666,4.666,0,0,0,2.01-1.065c.008-.012.016-.012.024-.024-.134-.032-.267-.032-.4-.055a3.939,3.939,0,0,1-2.943-2.465c-.039-.1,0-.149.1-.128a4.218,4.218,0,0,0,1.4-.044,2.188,2.188,0,0,1-.475-.145,3.794,3.794,0,0,1-2.339-3.025,2.3,2.3,0,0,1-.024-.425c.008-.1.051-.13.137-.074a3.772,3.772,0,0,0,1.428.4c-.161-.125-.31-.262-.455-.4A3.755,3.755,0,0,1-33.6,9.83c.071-.106.118-.106.2-.007a11.514,11.514,0,0,0,7.4,3.767c.078.011.086,0,.074-.087a3.951,3.951,0,0,1,.038-1.547,3.762,3.762,0,0,1,.731-1.465,3.915,3.915,0,0,1,1.226-1A3.827,3.827,0,0,1-22.4,9.063a3.633,3.633,0,0,1,1.6.258,3.811,3.811,0,0,1,1.043.639,1.7,1.7,0,0,1,.188.193.144.144,0,0,0,.149.039,9.26,9.26,0,0,0,2.154-.825.107.107,0,0,1,.1-.008c.032.024.019.063,0,.095a3.319,3.319,0,0,1-.6,1.1c-.172.214-.6.744-.893.792a7.4,7.4,0,0,0,1.817-.517c.073-.034.073-.048.073,0Z" transform="translate(42.421)" fill="#00bdfa"/>
  </g>
</svg>
