<svg xmlns="http://www.w3.org/2000/svg" width="63.999" height="64" viewBox="0 0 63.999 64">
  <g id="protection" transform="translate(0)">
    <path id="Trazado_47" data-name="Trazado 47" d="M28,47.334a1.293,1.293,0,0,1-.517-.107C26.848,46.963,12,40.544,12,27.43V16.286a1.337,1.337,0,0,1,.907-1.264L27.573,10.07a1.335,1.335,0,0,1,.853,0l14.667,4.952A1.332,1.332,0,0,1,44,16.286V27.43c0,13.115-14.848,19.533-15.483,19.8a1.338,1.338,0,0,1-.517.1ZM14.667,17.243V27.43c0,10.093,10.813,15.888,13.333,17.1,2.517-1.219,13.333-7.035,13.333-17.1V17.243L28,12.742Z" transform="translate(20 16.666)" fill="#0082e0"/>
    <path id="Trazado_48" data-name="Trazado 48" d="M21.667,26.5a.7.7,0,0,1-.075,0,1.337,1.337,0,0,1-.968-.5l-5.333-6.667a1.334,1.334,0,0,1,2.083-1.667l4.4,5.5,8.28-8.28a1.333,1.333,0,0,1,1.885,1.885l-9.333,9.333A1.317,1.317,0,0,1,21.667,26.5Z" transform="translate(24.999 24.166)" fill="#0082e0"/>
    <path id="Trazado_49" data-name="Trazado 49" d="M1.333,48a1.313,1.313,0,0,1-.659-.176,1.333,1.333,0,0,1-.5-1.819c5.5-9.643,8.064-18.88,8.064-29.072V9.573A9.584,9.584,0,0,1,17.813,0h8.24A9.557,9.557,0,0,1,33.73,3.835l1.227,1.627A6.9,6.9,0,0,0,40.48,8.237h2.053A5.474,5.474,0,0,1,48,13.7v1.573a5.484,5.484,0,0,1-3,4.872L34.17,25.563a1.424,1.424,0,0,1-1.88-.539,1.237,1.237,0,0,1,.488-1.733L43.8,17.763a2.784,2.784,0,0,0,1.531-2.483V13.707a2.77,2.77,0,0,0-2.8-2.8H40.48a9.593,9.593,0,0,1-7.659-3.843L31.6,5.445a6.9,6.9,0,0,0-5.547-2.779h-8.24a6.915,6.915,0,0,0-6.907,6.907v7.36c0,10.675-2.675,20.333-8.416,30.392A1.326,1.326,0,0,1,1.333,48Z" transform="translate(0)" fill="#0082e0"/>
    <path id="Trazado_50" data-name="Trazado 50" d="M12.667,26.555A3.408,3.408,0,0,1,9.609,24.63L3.222,11.376a1.333,1.333,0,1,1,2.4-1.157l6.387,13.256c.205.424,1.315.461,1.379-.245L15.459,1.28a1.317,1.317,0,0,1,1.453-1.2,1.333,1.333,0,0,1,1.2,1.451L16.046,23.475A3.376,3.376,0,0,1,12.667,26.555Z" transform="translate(5.151 0.112)" fill="#0082e0"/>
  </g>
</svg>
