<svg xmlns="http://www.w3.org/2000/svg" width="63.588" height="63.588" viewBox="0 0 63.588 63.588">
  <g id="dog-bone" transform="translate(0 0)">
    <path id="Trazado_42" data-name="Trazado 42" d="M60.935,12.638a9.971,9.971,0,0,0-6.783-3.2,10.022,10.022,0,1,0-18.74,5.493,1.263,1.263,0,0,1-.189,1.53L16.458,35.224a1.263,1.263,0,0,1-1.53.189,10.022,10.022,0,1,0-5.493,18.74,10.022,10.022,0,1,0,18.74-5.493,1.263,1.263,0,0,1,.189-1.53L47.13,28.364a1.263,1.263,0,0,1,1.53-.189A10.023,10.023,0,0,0,60.935,12.638ZM59.079,24.591a7.523,7.523,0,0,1-9.2,1.42,3.77,3.77,0,0,0-4.506.6L26.607,45.373a3.771,3.771,0,0,0-.6,4.506,7.538,7.538,0,1,1-14.094,4.108,9.979,9.979,0,0,0,3.96-1.71,1.242,1.242,0,1,0-1.455-2.013,7.586,7.586,0,0,1-3.807,1.4h0a7.538,7.538,0,1,1,3.094-14.084,3.771,3.771,0,0,0,4.506-.6L36.981,18.214a3.771,3.771,0,0,0,.6-4.506A7.538,7.538,0,1,1,51.671,9.6a9.981,9.981,0,0,0-3.943,1.7,1.242,1.242,0,1,0,1.451,2.016,7.571,7.571,0,0,1,3.8-1.388h0a7.537,7.537,0,0,1,6.1,12.665Z" transform="translate(0 0)" fill="#0082e0"/>
  </g>
</svg>
