<svg xmlns="http://www.w3.org/2000/svg" width="253" height="48" viewBox="0 0 253 48">
  <g id="Grupo_6" data-name="Grupo 6" transform="translate(-16.024 -311.811)">
    <g id="Grupo_2" data-name="Grupo 2" transform="translate(16.024 329.15)">
      <path id="Trazado_1" data-name="Trazado 1" d="M16.024,351.659c3.445.009,6.89.024,10.335.026a14.625,14.625,0,0,1,2.223,29.125c-1.658.186-3.344.15-5.017.171-2.513.032-5.028.024-7.541.033ZM22.1,374.95c1.568,0,3.082,0,4.6,0,4.6-.014,8.06-3.242,8.635-8.047a8.457,8.457,0,0,0-6.685-8.914,47.511,47.511,0,0,0-6.547-.358Z" transform="translate(-16.024 -351.096)" fill="#db000c"/>
      <path id="Trazado_2" data-name="Trazado 2" d="M343.378,381.071c-1.226-.313-2.482-.541-3.671-.958a9.7,9.7,0,0,1-6.048-6.006c1.665-.691,3.339-1.4,5.03-2.062a.729.729,0,0,1,.63.285,5.583,5.583,0,0,0,6.021,2.769,5.031,5.031,0,0,0,2.59-1.269,2.252,2.252,0,0,0-.633-3.889,37.32,37.32,0,0,0-3.762-1.325c-1.461-.508-2.971-.912-4.37-1.555a8.407,8.407,0,0,1-2.006-14.172c4.385-3.9,13.822-3.539,17.076,3.508.485,1.05.49,1.047-.609,1.5q-2.184.9-4.375,1.807c-.4-.582-.736-1.134-1.132-1.641a4.923,4.923,0,0,0-6.12-1.259,2.718,2.718,0,0,0-1.631,2.506,2.588,2.588,0,0,0,1.721,2.526c1.12.435,2.326.648,3.461,1.051a34.886,34.886,0,0,1,4.825,1.9c2.874,1.537,4.643,3.928,4.566,7.309a8.348,8.348,0,0,1-4.845,7.583,26.7,26.7,0,0,1-4.295,1.389Z" transform="translate(-190.586 -350.409)" fill="#db000c"/>
      <path id="Trazado_3" data-name="Trazado 3" d="M243.822,380.97h-5.964v-17.94l-.22-.081-8,14.677-8.018-14.714-.183.037v18h-5.948V351.7c2.108,0,4.18-.024,6.251.03.259.007.593.38.748.663,2.19,3.985,4.356,7.984,6.528,11.979.175.321.359.637.626,1.109,1.028-1.884,1.985-3.628,2.935-5.376,1.388-2.556,2.792-5.1,4.141-7.679a1.225,1.225,0,0,1,1.3-.741c1.917.038,3.835.014,5.806.014Z" transform="translate(-125.645 -351.112)" fill="#db000c"/>
      <path id="Trazado_4" data-name="Trazado 4" d="M90.877,381.146a15.126,15.126,0,1,1,15.171-15.084A15.092,15.092,0,0,1,90.877,381.146Zm-.022-6.121a8.994,8.994,0,1,0-9.042-8.976A9.068,9.068,0,0,0,90.856,375.025Z" transform="translate(-48.815 -350.676)" fill="#db000c"/>
      <path id="Trazado_5" data-name="Trazado 5" d="M284.621,381.035v-29.2h20.765v5.713H290.511v6.044h12.04v5.761H290.512v5.988H305.4v5.693Z" transform="translate(-163.636 -351.193)" fill="#db000c"/>
      <path id="Trazado_6" data-name="Trazado 6" d="M471.622,380.981h-5.779v-29.21H471.6V364.3l.209.063c.17-.194.354-.377.508-.582q4.306-5.716,8.6-11.445a1.41,1.41,0,0,1,1.3-.651c2.069.039,4.14.015,6.407.015-.869,1.184-1.626,2.223-2.39,3.256-2.449,3.313-4.885,6.635-7.365,9.925a1.108,1.108,0,0,0-.015,1.536c3.091,4.526,6.15,9.074,9.217,13.617.186.274.356.559.626.985-2.4,0-4.653.019-6.9-.027-.249-.005-.551-.346-.726-.6-1.972-2.89-3.923-5.795-5.881-8.695-.185-.273-.372-.545-.639-.935-.979,1.327-1.894,2.524-2.75,3.762a1.856,1.856,0,0,0-.167.981C471.614,377.3,471.622,379.087,471.622,380.981Z" transform="translate(-263.23 -351.11)" fill="#db000c"/>
      <path id="Trazado_7" data-name="Trazado 7" d="M517.476,381.017c1.4-3.934,2.741-7.717,4.083-11.5,2-5.652,4.017-11.3,5.989-16.961a1.077,1.077,0,0,1,1.248-.877c1.582.057,3.169.037,4.753.006a.764.764,0,0,1,.868.594q5.011,14.064,10.044,28.119a6.314,6.314,0,0,1,.146.616c-1.947,0-3.835.022-5.722-.03-.214-.006-.511-.387-.611-.654-.6-1.591-1.175-3.191-1.706-4.806a.879.879,0,0,0-1-.709q-4.473.037-8.948,0a.94.94,0,0,0-1.056.768q-.8,2.419-1.729,4.8a1.07,1.07,0,0,1-.729.611C521.278,381.041,519.446,381.017,517.476,381.017Zm13.65-20.593-.2.006-3.049,8.557h6.3C533.128,366.048,532.127,363.236,531.126,360.424Z" transform="translate(-291.606 -351.105)" fill="#db000c"/>
      <path id="Trazado_8" data-name="Trazado 8" d="M398.385,381.093h-5.967v-23.3h-9.257V351.88h24.422v5.869h-9.2Z" transform="translate(-217.791 -351.217)" fill="#db000c"/>
      <path id="Trazado_9" data-name="Trazado 9" d="M444.57,351.826h5.762v29.22H444.57Z" transform="translate(-251.54 -351.188)" fill="#db000c"/>
      <g id="Grupo_1" data-name="Grupo 1" transform="translate(58.688)">
        <path id="Trazado_10" data-name="Trazado 10" d="M168.076,365.632H174.3v11.5a20.332,20.332,0,0,1-11.911,3.745c-9.259,0-16.077-6.354-16.077-15.234s6.818-15.236,16.2-15.236c5.176,0,9.469,1.768,12.331,5.093l-4.377,4.04a9.968,9.968,0,0,0-7.618-3.325c-5.724,0-9.638,3.83-9.638,9.428,0,5.513,3.914,9.427,9.554,9.427a10.827,10.827,0,0,0,5.3-1.263Z" transform="translate(-146.317 -350.409)" fill="#db000c"/>
      </g>
    </g>
    <g id="Grupo_3" data-name="Grupo 3" transform="translate(140.356 311.811)">
      <path id="Trazado_11" data-name="Trazado 11" d="M304.806,318.52q.572-.778,1.14-1.559c.122-.168.227-.506.142-.639-.956-1.491-1.95-2.958-2.985-4.507l-3.094,4.153h-1.7l-3.1-4.157-3.156,4.709c.492.664.977,1.321,1.462,1.976l-1.462,2.181c1.185,1.6,2.334,3.174,3.521,4.718a1.11,1.11,0,0,0,.776.341q2.84.043,5.68,0a1.105,1.105,0,0,0,.759-.37c1.078-1.4,2.124-2.818,3.159-4.247.122-.168.227-.506.142-.639C305.669,319.824,305.241,319.174,304.806,318.52Z" transform="translate(-292.052 -311.811)" fill="#db000c"/>
    </g>
  </g>
</svg>
